REM DIRINDEX 1\2,1\3,1\4,1\6,1\5\7,1\5\8
REM DIRNAME folder01,folder02,folder03,folder04,folder05,folder06,folder07,folder08
TITLE ""
FILE "DB4500_5th_5C_21.mp3" MP3
  TRACK 01 AUDIO
    TITLE "0:"
    INDEX 01 00:00:00
  TRACK 02 AUDIO
    TITLE "2:cjc114_3926"
    INDEX 01 00:00:03
  TRACK 03 AUDIO
    TITLE "0:"
    INDEX 01 00:01:26
  TRACK 04 AUDIO
    TITLE "3:cjc114_3927"
    INDEX 01 00:01:50
  TRACK 05 AUDIO
    TITLE "0:"
    INDEX 01 00:03:74
  TRACK 06 AUDIO
    TITLE "4:cjc114_3928"
    INDEX 01 00:04:25
  TRACK 07 AUDIO
    TITLE "0:"
    INDEX 01 00:07:68
  TRACK 08 AUDIO
    TITLE "2:cjc114_3929"
    INDEX 01 00:08:42
  TRACK 09 AUDIO
    TITLE "0:"
    INDEX 01 00:09:63
  TRACK 10 AUDIO
    TITLE "3:cjc114_3930"
    INDEX 01 00:10:12
  TRACK 11 AUDIO
    TITLE "0:"
    INDEX 01 00:11:40
  TRACK 12 AUDIO
    TITLE "4:cjc114_3931"
    INDEX 01 00:11:60
  TRACK 13 AUDIO
    TITLE "0:"
    INDEX 01 00:14:56
  TRACK 14 AUDIO
    TITLE "2:cjc114_3932"
    INDEX 01 00:15:23
  TRACK 15 AUDIO
    TITLE "0:"
    INDEX 01 00:16:55
  TRACK 16 AUDIO
    TITLE "3:cjc114_3933"
    INDEX 01 00:17:02
  TRACK 17 AUDIO
    TITLE "0:"
    INDEX 01 00:18:19
  TRACK 18 AUDIO
    TITLE "4:cjc114_3934"
    INDEX 01 00:18:41
  TRACK 19 AUDIO
    TITLE "0:"
    INDEX 01 00:23:40
  TRACK 20 AUDIO
    TITLE "2:cjc114_3935"
    INDEX 01 00:24:12
  TRACK 21 AUDIO
    TITLE "0:"
    INDEX 01 00:25:23
  TRACK 22 AUDIO
    TITLE "3:cjc114_3936"
    INDEX 01 00:25:46
  TRACK 23 AUDIO
    TITLE "0:"
    INDEX 01 00:26:52
  TRACK 24 AUDIO
    TITLE "4:cjc114_3937"
    INDEX 01 00:27:00
  TRACK 25 AUDIO
    TITLE "0:"
    INDEX 01 00:29:62
  TRACK 26 AUDIO
    TITLE "2:cjc114_3938"
    INDEX 01 00:30:34
  TRACK 27 AUDIO
    TITLE "0:"
    INDEX 01 00:31:45
  TRACK 28 AUDIO
    TITLE "3:cjc114_3939"
    INDEX 01 00:31:71
  TRACK 29 AUDIO
    TITLE "0:"
    INDEX 01 00:33:09
  TRACK 30 AUDIO
    TITLE "4:cjc114_3940"
    INDEX 01 00:33:32
  TRACK 31 AUDIO
    TITLE "0:"
    INDEX 01 00:36:25
  TRACK 32 AUDIO
    TITLE "2:cjc114_3941"
    INDEX 01 00:36:74
  TRACK 33 AUDIO
    TITLE "0:"
    INDEX 01 00:38:04
  TRACK 34 AUDIO
    TITLE "3:cjc114_3942"
    INDEX 01 00:38:30
  TRACK 35 AUDIO
    TITLE "0:"
    INDEX 01 00:39:54
  TRACK 36 AUDIO
    TITLE "4:cjc114_3943"
    INDEX 01 00:40:01
  TRACK 37 AUDIO
    TITLE "0:"
    INDEX 01 00:43:23
  TRACK 38 AUDIO
    TITLE "2:cjc114_3944"
    INDEX 01 00:43:70
  TRACK 39 AUDIO
    TITLE "0:"
    INDEX 01 00:45:10
  TRACK 40 AUDIO
    TITLE "3:cjc114_3945"
    INDEX 01 00:45:33
  TRACK 41 AUDIO
    TITLE "0:"
    INDEX 01 00:46:72
  TRACK 42 AUDIO
    TITLE "4:cjc114_3946"
    INDEX 01 00:47:19
  TRACK 43 AUDIO
    TITLE "0:"
    INDEX 01 00:50:48
  TRACK 44 AUDIO
    TITLE "2:cjc114_3947"
    INDEX 01 00:51:20
  TRACK 45 AUDIO
    TITLE "0:"
    INDEX 01 00:52:34
  TRACK 46 AUDIO
    TITLE "3:cjc114_3948"
    INDEX 01 00:52:57
  TRACK 47 AUDIO
    TITLE "0:"
    INDEX 01 00:54:05
  TRACK 48 AUDIO
    TITLE "4:cjc114_3949"
    INDEX 01 00:54:30
  TRACK 49 AUDIO
    TITLE "0:"
    INDEX 01 00:57:41
  TRACK 50 AUDIO
    TITLE "2:cjc114_3950"
    INDEX 01 00:58:15
  TRACK 51 AUDIO
    TITLE "0:"
    INDEX 01 00:59:28
  TRACK 52 AUDIO
    TITLE "3:cjc114_3951"
    INDEX 01 00:59:49
  TRACK 53 AUDIO
    TITLE "0:"
    INDEX 01 01:00:68
  TRACK 54 AUDIO
    TITLE "4:cjc114_3952"
    INDEX 01 01:01:17
  TRACK 55 AUDIO
    TITLE "0:"
    INDEX 01 01:05:09
  TRACK 56 AUDIO
    TITLE "2:cjc114_3953"
    INDEX 01 01:05:54
  TRACK 57 AUDIO
    TITLE "0:"
    INDEX 01 01:06:53
  TRACK 58 AUDIO
    TITLE "3:cjc114_3954"
    INDEX 01 01:06:67
  TRACK 59 AUDIO
    TITLE "0:"
    INDEX 01 01:08:46
  TRACK 60 AUDIO
    TITLE "4:cjc114_3955"
    INDEX 01 01:08:62
  TRACK 61 AUDIO
    TITLE "0:"
    INDEX 01 01:11:58
  TRACK 62 AUDIO
    TITLE "2:cjc114_3956"
    INDEX 01 01:12:23
  TRACK 63 AUDIO
    TITLE "0:"
    INDEX 01 01:13:20
  TRACK 64 AUDIO
    TITLE "3:cjc114_3957"
    INDEX 01 01:13:36
  TRACK 65 AUDIO
    TITLE "0:"
    INDEX 01 01:14:47
  TRACK 66 AUDIO
    TITLE "4:cjc114_3958"
    INDEX 01 01:14:61
  TRACK 67 AUDIO
    TITLE "0:"
    INDEX 01 01:17:63
  TRACK 68 AUDIO
    TITLE "4:cjc114_3959"
    INDEX 01 01:18:23
  TRACK 69 AUDIO
    TITLE "0:"
    INDEX 01 01:21:18
  TRACK 70 AUDIO
    TITLE "2:cjc114_3960"
    INDEX 01 01:21:51
  TRACK 71 AUDIO
    TITLE "0:"
    INDEX 01 01:22:58
  TRACK 72 AUDIO
    TITLE "3:cjc114_3961"
    INDEX 01 01:22:70
  TRACK 73 AUDIO
    TITLE "0:"
    INDEX 01 01:24:00
  TRACK 74 AUDIO
    TITLE "4:cjc114_3962"
    INDEX 01 01:24:12
  TRACK 75 AUDIO
    TITLE "0:"
    INDEX 01 01:27:53
  TRACK 76 AUDIO
    TITLE "2:cjc114_3963"
    INDEX 01 01:28:14
  TRACK 77 AUDIO
    TITLE "0:"
    INDEX 01 01:29:03
  TRACK 78 AUDIO
    TITLE "3:cjc114_3964"
    INDEX 01 01:29:19
  TRACK 79 AUDIO
    TITLE "0:"
    INDEX 01 01:30:28
  TRACK 80 AUDIO
    TITLE "4:cjc114_3965"
    INDEX 01 01:30:42
  TRACK 81 AUDIO
    TITLE "0:"
    INDEX 01 01:33:52
  TRACK 82 AUDIO
    TITLE "2:cjc114_3966"
    INDEX 01 01:34:38
  TRACK 83 AUDIO
    TITLE "0:"
    INDEX 01 01:35:41
  TRACK 84 AUDIO
    TITLE "3:cjc114_3967"
    INDEX 01 01:35:53
  TRACK 85 AUDIO
    TITLE "0:"
    INDEX 01 01:36:62
  TRACK 86 AUDIO
    TITLE "4:cjc114_3968"
    INDEX 01 01:37:01
  TRACK 87 AUDIO
    TITLE "0:"
    INDEX 01 01:39:51
